<svg width="52" height="39" viewBox="0 0 52 39" fill="none" xmlns="http://www.w3.org/2000/svg">
<path d="M0.623986 7.11234C0.623986 11.9123 5.78399 12.5603 5.78399 16.0163C5.78399 17.2163 5.25599 17.6483 4.41599 17.6483C3.57599 17.6483 3.04799 17.2163 3.04799 16.0163V14.8163H0.551986V15.8483C0.551986 18.5363 1.89599 20.0723 4.48799 20.0723C7.07999 20.0723 8.42399 18.5363 8.42399 15.8483C8.42399 11.0483 3.26399 10.4003 3.26399 6.94434C3.26399 5.74434 3.74399 5.28834 4.58399 5.28834C5.42399 5.28834 5.90399 5.74434 5.90399 6.94434V7.64034H8.39999V7.11234C8.39999 4.42434 7.07999 2.88834 4.51199 2.88834C1.94399 2.88834 0.623986 4.42434 0.623986 7.11234Z" fill="white"/>
<path d="M15.7925 3.08034H11.9285L9.24055 19.8803H11.6645L12.1205 16.8323H15.3605L15.8165 19.8803H18.4805L15.7925 3.08034ZM13.7285 6.05634L15.0005 14.5523H12.4565L13.7285 6.05634Z" fill="white"/>
<path d="M23.262 2.79907H19.59V19.5991H21.894V7.71907L23.862 19.5991H26.358L28.182 7.55107L28.264 19.3803L30.904 19.3731L30.678 2.79907H27.006L25.206 14.7271L23.262 2.79907Z" fill="white"/>
<path d="M0.191986 24.4803H2.95199V38.8804H5.59199V24.4803H8.35199V22.0803H0.191986V24.4803Z" fill="white"/>
<path d="M9.51467 38.8804H12.1547V22.0803H9.51467V38.8804Z" fill="white"/>
<path d="M17.973 22.0803H14.085V38.8804H16.725V32.5683H17.973C20.613 32.5683 22.5 31.1043 22.5 28.4163V26.2323C22.5 23.5443 20.613 22.0803 17.973 22.0803ZM17.973 24.4803C18.813 24.4803 19.269 24.8643 19.269 26.0643V28.5843C19.269 29.7843 18.813 30.1683 17.973 30.1683H16.725V24.4803H17.973Z" fill="white"/>
<path d="M23.7229 38.8804H26.3629V22.0803H23.7229V38.8804Z" fill="white"/>
<path d="M34.288 38.8804H37L33.328 29.5683L37 22.0803H34.36L30.904 29.4003V19.3803H28.264V38.8804H30.904V33.7203L31.72 32.1843L34.288 38.8804Z" fill="white"/>
<path d="M38.5 38.8804H41.14V22.0803H38.5V38.8804Z" fill="white"/>
<path d="M49.164 38.8804H51.876V3.08034H49.524V32.1363L46.812 22.0803H43.5V38.8804H45.876V26.7123L49.164 38.8804Z" fill="white"/>
<circle cx="40.5" cy="12.3802" r="4.4" stroke="white" stroke-width="2.2"/>
<rect x="43" width="6.50241" height="2" fill="white"/>
<circle cx="46.2512" cy="5.82116" r="1.27905" fill="white"/>
</svg>
