<svg width="192" height="192" viewBox="0 0 192 192" fill="none" xmlns="http://www.w3.org/2000/svg">
<path d="M94.2141 1.54225C94.9533 0.0760734 97.0467 0.0760777 97.7859 1.54225L112.138 30.0088C112.675 31.0751 114.021 31.4358 115.02 30.7811L141.682 13.3043C143.056 12.4041 144.868 13.4508 144.775 15.0901L142.971 46.9188C142.904 48.111 143.889 49.0964 145.081 49.0288L176.91 47.2245C178.549 47.1316 179.596 48.9445 178.696 50.3177L161.219 76.98C160.564 77.9787 160.925 79.3248 161.991 79.8623L190.458 94.2141C191.924 94.9533 191.924 97.0467 190.458 97.7859L161.991 112.138C160.925 112.675 160.564 114.021 161.219 115.02L178.696 141.682C179.596 143.056 178.549 144.868 176.91 144.775L145.081 142.971C143.889 142.904 142.904 143.889 142.971 145.081L144.775 176.91C144.868 178.549 143.056 179.596 141.682 178.696L115.02 161.219C114.021 160.564 112.675 160.925 112.138 161.991L97.7859 190.458C97.0467 191.924 94.9533 191.924 94.2141 190.458L79.8623 161.991C79.3248 160.925 77.9787 160.564 76.98 161.219L50.3177 178.696C48.9445 179.596 47.1316 178.549 47.2245 176.91L49.0288 145.081C49.0964 143.889 48.111 142.904 46.9188 142.971L15.0901 144.775C13.4508 144.868 12.4041 143.056 13.3043 141.682L30.7811 115.02C31.4358 114.021 31.0751 112.675 30.0088 112.138L1.54225 97.7859C0.0760734 97.0467 0.0760777 94.9533 1.54225 94.2141L30.0088 79.8623C31.0751 79.3248 31.4358 77.9787 30.7811 76.98L13.3043 50.3177C12.4041 48.9445 13.4508 47.1316 15.0901 47.2245L46.9188 49.0288C48.111 49.0964 49.0964 48.111 49.0288 46.9188L47.2245 15.0901C47.1316 13.4508 48.9445 12.4041 50.3177 13.3043L76.98 30.7811C77.9787 31.4358 79.3248 31.0751 79.8623 30.0088L94.2141 1.54225Z" fill="#155FB6"/>
</svg>
