<svg width="192" height="192" viewBox="0 0 192 192" fill="none" xmlns="http://www.w3.org/2000/svg">
<path d="M94.6606 1.76734C95.215 0.667711 96.785 0.667712 97.3394 1.76734L111.691 30.2339C112.363 31.5667 114.046 32.0176 115.294 31.1993L141.956 13.7224C142.986 13.0473 144.346 13.8323 144.276 15.0618L142.472 46.8905C142.388 48.3807 143.619 49.6125 145.109 49.528L176.938 47.7237C178.168 47.654 178.953 49.0137 178.278 50.0436L160.801 76.7059C159.982 77.9543 160.433 79.6368 161.766 80.3088L190.233 94.6606C191.332 95.215 191.332 96.785 190.233 97.3394L161.766 111.691C160.433 112.363 159.982 114.046 160.801 115.294L178.278 141.956C178.953 142.986 178.168 144.346 176.938 144.276L145.109 142.472C143.619 142.388 142.388 143.619 142.472 145.109L144.276 176.938C144.346 178.168 142.986 178.953 141.956 178.278L115.294 160.801C114.046 159.982 112.363 160.433 111.691 161.766L97.3394 190.233C96.785 191.332 95.215 191.332 94.6606 190.233L80.3088 161.766C79.6368 160.433 77.9543 159.982 76.7059 160.801L50.0436 178.278C49.0137 178.953 47.654 178.168 47.7237 176.938L49.528 145.109C49.6125 143.619 48.3807 142.388 46.8905 142.472L15.0618 144.276C13.8323 144.346 13.0473 142.986 13.7224 141.956L31.1993 115.294C32.0176 114.046 31.5667 112.363 30.2339 111.691L1.76734 97.3394C0.667711 96.785 0.667712 95.215 1.76734 94.6606L30.2339 80.3088C31.5667 79.6368 32.0176 77.9543 31.1993 76.7059L13.7224 50.0436C13.0473 49.0137 13.8323 47.654 15.0618 47.7237L46.8905 49.528C48.3807 49.6125 49.6125 48.3807 49.528 46.8905L47.7237 15.0618C47.654 13.8323 49.0137 13.0473 50.0436 13.7224L76.7059 31.1993C77.9543 32.0176 79.6368 31.5667 80.3088 30.2339L94.6606 1.76734Z" stroke="#155FB6"/>
</svg>
