<svg width="262" height="262" viewBox="0 0 262 262" fill="none" xmlns="http://www.w3.org/2000/svg">
<path d="M154.468 46.2978L195.389 19.4744L192.62 68.3249L192.557 69.4433L193.675 69.3799L242.526 66.6107L215.702 107.532L215.088 108.469L216.088 108.973L259.779 131L216.088 153.027L215.088 153.531L215.702 154.468L242.526 195.389L193.675 192.62L192.557 192.557L192.62 193.675L195.389 242.526L154.468 215.702L153.531 215.088L153.027 216.088L131 259.779L108.973 216.088L108.469 215.088L107.532 215.702L66.6107 242.526L69.3799 193.675L69.4433 192.557L68.3249 192.62L19.4744 195.389L46.2978 154.468L46.9119 153.531L45.9117 153.027L2.2213 131L45.9117 108.973L46.9119 108.469L46.2978 107.532L19.4744 66.6107L68.3249 69.3799L69.4433 69.4433L69.3799 68.3249L66.6107 19.4744L107.532 46.2978L108.469 46.9119L108.973 45.9117L131 2.2213L153.027 45.9117L153.531 46.9119L154.468 46.2978Z" stroke="white" stroke-width="2"/>
</svg>
