<svg width="196" height="196" viewBox="0 0 196 196" fill="none" xmlns="http://www.w3.org/2000/svg">
<path d="M115.694 34.8457L145.889 15.0532L143.846 51.099L143.783 52.2174L144.901 52.154L180.947 50.1107L161.154 80.3055L160.54 81.2424L161.54 81.7467L193.779 98L161.54 114.253L160.54 114.758L161.154 115.694L180.947 145.889L144.901 143.846L143.783 143.783L143.846 144.901L145.889 180.947L115.694 161.154L114.758 160.54L114.253 161.54L98 193.779L81.7467 161.54L81.2424 160.54L80.3055 161.154L50.1107 180.947L52.154 144.901L52.2174 143.783L51.099 143.846L15.0532 145.889L34.8457 115.694L35.4598 114.758L34.4595 114.253L2.22131 98L34.4595 81.7467L35.4598 81.2424L34.8457 80.3055L15.0532 50.1107L51.099 52.154L52.2174 52.2174L52.154 51.099L50.1107 15.0532L80.3055 34.8457L81.2424 35.4598L81.7467 34.4595L98 2.22131L114.253 34.4595L114.758 35.4598L115.694 34.8457Z" fill="white" stroke="#155FB6" stroke-width="2"/>
</svg>
